# 3ds Max Wavefront OBJ Exporter v0.97b - (c)2007 guruware
# File Created: 12.03.2015 01:41:12

#
# object Box001
#

v  0.8518 -0.4251 0.3093
v  0.8518 0.5133 0.3146
v  0.8518 0.6934 0.3597
v  0.8518 0.7897 0.4604
v  0.6357 0.3052 2.0929
v  0.6357 -0.4639 2.0929
v  -0.8507 -0.4251 0.3093
v  -0.6346 -0.4639 2.0929
v  -0.6346 0.3052 2.0929
v  -0.8507 0.7897 0.4604
v  -0.8507 0.6934 0.3598
v  -0.8507 0.5133 0.3147
v  0.1639 -0.3794 3.0576
v  0.1601 -0.1238 3.0576
v  -0.1589 -0.1238 3.0576
v  -0.1627 -0.3794 3.0576
v  0.5395 0.4014 2.0929
v  0.7556 0.8296 0.5056
v  -0.7545 0.8296 0.5056
v  -0.5384 0.4014 2.0929
v  -0.5575 -1.7120 -2.8009
v  -0.5575 -1.2650 -3.1901
v  -0.4613 -1.1924 -3.2532
v  0.5586 -1.7120 -2.8009
v  0.5586 -1.2650 -3.1901
v  0.4624 -1.1924 -3.2532
v  0.6754 -0.2610 -0.4017
v  0.6754 0.4805 -0.5041
v  0.7345 0.4967 -0.0951
v  0.7345 -0.3529 -0.0429
v  -0.6724 -0.2610 -0.4017
v  -0.6251 -0.2074 -0.8274
v  0.6197 -0.2074 -0.8274
v  -0.7405 0.4967 -0.1003
v  -0.6724 0.4805 -0.5040
v  -0.7405 -0.3529 -0.0481
v  0.5792 0.5758 -0.5172
v  -0.5762 0.5758 -0.5172
v  -0.6443 0.5927 -0.1059
v  0.6383 0.5927 -0.1014
v  0.5586 0.3555 -1.4925
v  0.5586 -0.2874 -1.2053
v  0.5586 -0.9960 -2.0896
v  0.5586 -0.3321 -2.4642
v  -0.5575 -0.2874 -1.2053
v  -0.5575 -0.9960 -2.0896
v  -0.5575 0.3555 -1.4925
v  -0.5575 -0.3321 -2.4642
v  -0.4613 0.4434 -1.5318
v  0.4624 0.4434 -1.5318
v  0.4624 -0.2483 -2.5115
v  -0.4613 -0.2483 -2.5115
v  0.6197 0.4637 -0.9202
v  -0.6251 0.4637 -0.9202
v  -0.5289 0.5590 -0.9334
v  0.5235 0.5590 -0.9334
v  -0.7545 0.6095 0.3152
v  0.7556 0.6095 0.3152
v  0.4817 0.2619 2.0929
v  0.4962 -0.4287 2.0929
v  -0.4806 0.2619 2.0929
v  -0.4951 -0.4287 2.0929
v  0.2523 -0.0539 2.6734
v  0.2582 -0.4048 2.6734
v  -0.2511 -0.0539 2.6734
v  -0.2571 -0.4048 2.6734
# 66 vertices

vn 0.9963 -0.0013 -0.0857
vn 0.9661 0.0369 -0.2555
vn 0.7045 0.4051 -0.5828
vn 0.7302 0.6356 -0.2506
vn 0.9239 0.3190 0.2113
vn 0.9927 0.0000 0.1203
vn -0.9972 0.0005 -0.0745
vn -0.9927 -0.0000 0.1203
vn -0.9235 0.3242 0.2052
vn -0.7165 0.6541 -0.2425
vn -0.6709 0.4106 -0.6175
vn -0.9823 0.0221 -0.1862
vn 0.0003 -0.9945 -0.1051
vn -0.0000 -0.9998 -0.0218
vn 0.0000 -0.9945 -0.1047
vn -0.0000 0.0000 1.0000
vn 0.3554 0.8867 0.2957
vn 0.1856 0.9714 -0.1483
vn -0.1918 0.9711 -0.1423
vn -0.3612 0.8868 0.2884
vn 0.0000 -0.6566 -0.7543
vn -0.0000 -0.6566 -0.7543
vn 0.9889 -0.0149 -0.1481
vn 0.9904 -0.0189 -0.1368
vn 0.9773 -0.0170 -0.2113
vn 0.9686 -0.0059 -0.2485
vn 0.0000 -0.9813 -0.1926
vn 0.0004 -0.9810 -0.1941
vn -0.0000 -0.9997 0.0262
vn -0.9767 -0.0178 -0.2141
vn -0.9904 -0.0190 -0.1373
vn -0.9877 -0.0151 -0.1559
vn -0.9690 -0.0065 -0.2469
vn 0.0001 0.9992 -0.0405
vn -0.0000 0.9992 -0.0407
vn 0.0001 0.9992 -0.0403
vn 0.0001 0.9992 -0.0404
vn 0.9986 -0.0216 -0.0483
vn 0.9978 -0.0155 -0.0642
vn 1.0000 0.0000 0.0000
vn -0.0000 -0.9086 0.4177
vn -0.0000 -0.9091 0.4166
vn -0.0000 -0.7438 0.6684
vn -0.9973 -0.0171 -0.0710
vn -0.9983 -0.0239 -0.0535
vn -1.0000 -0.0000 -0.0000
vn 0.0000 0.9228 -0.3853
vn -0.0000 0.9225 -0.3859
vn 0.0000 0.7250 -0.6888
vn 1.0000 0.0000 -0.0000
vn -0.0000 -0.7048 0.7094
vn -1.0000 -0.0000 0.0000
vn 0.0000 0.6178 -0.7863
vn 0.9919 -0.0274 -0.1242
vn 0.9895 -0.0197 -0.1428
vn 0.0004 -0.9753 -0.2211
vn 0.0005 -0.9752 -0.2214
vn -0.9923 -0.0280 -0.1209
vn -0.9899 -0.0194 -0.1402
vn -0.0000 0.9939 -0.1101
vn -0.0000 0.9939 -0.1099
vn -0.0768 0.6130 -0.7864
vn 0.0770 0.6105 -0.7883
vn -0.0000 -0.0000 1.0000
vn 0.9259 0.0182 0.3773
vn 0.9261 0.0195 0.3767
vn 0.9470 0.0172 0.3208
vn 0.9502 0.0158 0.3111
vn -0.0000 0.8784 0.4779
vn -0.0000 0.9334 0.3589
vn -0.9259 0.0183 0.3774
vn -0.9254 0.0194 0.3786
vn -0.9504 0.0172 0.3105
vn -0.9475 0.0158 0.3194
vn -0.0000 -0.9992 0.0411
vn -0.0000 -0.9987 0.0511
vn 0.9714 0.0153 0.2369
vn 0.9713 0.0144 0.2376
vn -0.0000 0.9839 0.1789
vn -0.9715 0.0154 0.2366
vn -0.9717 0.0144 0.2358
vn -0.0000 -0.9978 0.0658
vn 0.0000 -0.9978 0.0658
vn 0.6897 0.6883 -0.2249
vn 0.6883 0.6896 -0.2252
vn 0.6999 0.6908 -0.1817
vn 0.7017 0.6915 -0.1716
vn -0.6921 0.6908 -0.2093
vn -0.6910 0.6922 -0.2085
vn -0.7000 0.6924 -0.1749
vn -0.7001 0.6903 -0.1824
vn 0.7070 0.6339 -0.3134
vn 0.7069 0.6373 -0.3069
vn 0.6941 0.5116 -0.5064
vn 0.6981 0.5253 -0.4865
vn -0.7071 0.6355 -0.3102
vn -0.7066 0.6326 -0.3171
vn -0.6972 0.5266 -0.4864
vn -0.6952 0.5120 -0.5045
vn 0.6991 0.4415 -0.5624
vn 0.7007 0.4407 -0.5610
vn -0.6990 0.4393 -0.5642
vn -0.7004 0.4383 -0.5633
vn 0.7066 0.6963 -0.1261
vn 0.7068 0.6962 -0.1254
vn 0.7056 0.6901 -0.1609
vn 0.7055 0.6890 -0.1660
vn -0.7065 0.6965 -0.1255
vn -0.7067 0.6955 -0.1297
vn -0.7055 0.6897 -0.1631
vn -0.7060 0.6907 -0.1569
# 111 vertex normals

vt 0.7864 0.7875 0.0000
vt 0.8935 0.7232 0.0000
vt 0.9165 0.7213 0.0000
vt 0.9717 0.9478 0.0000
vt 0.8826 0.9815 0.0000
vt 0.7863 0.7871 0.0000
vt 0.8827 0.9818 0.0000
vt 0.9716 0.9492 0.0000
vt 0.9163 0.7211 0.0000
vt 0.8941 0.7240 0.0000
vt 0.8936 0.7230 0.0000
vt 0.3369 0.7314 0.0000
vt 0.5874 0.7622 0.0000
vt 0.5870 0.9405 0.0000
vt 0.3365 0.9704 0.0000
vt 0.4585 0.0541 0.0000
vt 0.4600 0.0206 0.0000
vt 0.5018 0.0218 0.0000
vt 0.5013 0.0553 0.0000
vt 0.2941 0.9297 0.0000
vt 0.0347 0.9594 0.0000
vt 0.0352 0.7474 0.0000
vt 0.2945 0.7784 0.0000
vt 0.0383 0.6633 0.0000
vt 0.2742 0.6655 0.0000
vt 0.2606 0.6788 0.0000
vt 0.0515 0.6767 0.0000
vt 0.7905 0.8823 0.0000
vt 0.7901 0.9656 0.0000
vt 0.7766 0.9790 0.0000
vt 0.6337 0.8817 0.0000
vt 0.6334 0.9649 0.0000
vt 0.6469 0.9785 0.0000
vt 0.7535 0.6774 0.0000
vt 0.8411 0.6114 0.0000
vt 0.8709 0.6649 0.0000
vt 0.7556 0.7318 0.0000
vt 0.7017 0.2070 0.0000
vt 0.7015 0.4024 0.0000
vt 0.6393 0.3955 0.0000
vt 0.6394 0.2150 0.0000
vt 0.8711 0.6646 0.0000
vt 0.8412 0.6108 0.0000
vt 0.7538 0.6773 0.0000
vt 0.7552 0.7313 0.0000
vt 0.0758 0.5160 0.0000
vt 0.2385 0.5163 0.0000
vt 0.2478 0.5743 0.0000
vt 0.0674 0.5745 0.0000
vt 0.7474 0.4973 0.0000
vt 0.6730 0.5779 0.0000
vt 0.5229 0.5232 0.0000
vt 0.5776 0.4288 0.0000
vt 0.5834 0.2238 0.0000
vt 0.5833 0.3856 0.0000
vt 0.4190 0.3855 0.0000
vt 0.4191 0.2237 0.0000
vt 0.6723 0.5770 0.0000
vt 0.7470 0.4962 0.0000
vt 0.5780 0.4284 0.0000
vt 0.5228 0.5226 0.0000
vt 0.2221 0.3721 0.0000
vt 0.0926 0.3720 0.0000
vt 0.0923 0.2034 0.0000
vt 0.2225 0.2035 0.0000
vt 0.4119 0.4806 0.0000
vt 0.4457 0.3967 0.0000
vt 0.2727 0.3854 0.0000
vt 0.2728 0.2236 0.0000
vt 0.4448 0.3959 0.0000
vt 0.4122 0.4816 0.0000
vt 0.0921 0.0335 0.0000
vt 0.2229 0.0337 0.0000
vt 0.8079 0.5626 0.0000
vt 0.7231 0.6249 0.0000
vt 0.8075 0.1814 0.0000
vt 0.8074 0.4283 0.0000
vt 0.7545 0.4123 0.0000
vt 0.7554 0.1984 0.0000
vt 0.8076 0.5622 0.0000
vt 0.7229 0.6243 0.0000
vt 0.2317 0.4576 0.0000
vt 0.0838 0.4574 0.0000
vt 0.2638 0.6336 0.0000
vt 0.0503 0.6329 0.0000
vt 0.0343 0.9792 0.0000
vt 0.2956 0.9494 0.0000
vt 0.2944 0.7564 0.0000
vt 0.0355 0.7231 0.0000
vt 0.3911 0.2037 0.0000
vt 0.3197 0.1656 0.0000
vt 0.3342 0.1500 0.0000
vt 0.3821 0.1719 0.0000
vt 0.3150 0.1479 0.0000
vt 0.7152 0.0230 0.0000
vt 0.6547 0.1530 0.0000
vt 0.6324 0.1443 0.0000
vt 0.6946 0.0246 0.0000
vt 0.6467 0.1612 0.0000
vt 0.5737 0.1995 0.0000
vt 0.5698 0.1757 0.0000
vt 0.3993 0.0872 0.0000
vt 0.4464 0.1068 0.0000
vt 0.5664 0.0833 0.0000
vt 0.5975 0.0211 0.0000
vt 0.5196 0.1066 0.0000
vt 0.4274 0.0417 0.0000
vt 0.5289 0.0429 0.0000
vt 0.5485 0.0074 0.0000
vt 0.0328 0.6278 0.0000
vt 0.0401 0.6479 0.0000
vt 0.2813 0.6284 0.0000
vt 0.2743 0.6486 0.0000
vt 0.0488 0.5737 0.0000
vt 0.2665 0.5733 0.0000
vt 0.0734 0.3720 0.0000
vt 0.0734 0.2002 0.0000
vt 0.2413 0.3720 0.0000
vt 0.2414 0.2002 0.0000
vt 0.0728 0.0311 0.0000
vt 0.2422 0.0312 0.0000
vt 0.0566 0.5166 0.0000
vt 0.0645 0.4570 0.0000
vt 0.2577 0.5168 0.0000
vt 0.2510 0.4572 0.0000
# 125 texture coords

g Box001
s 1
f 1/1/1 2/2/2 3/2/3 
f 3/2/3 4/3/4 5/4/5 
f 1/1/1 3/2/3 5/4/5 
f 1/1/1 5/4/5 6/5/6 
f 7/6/7 8/7/8 9/8/9 
f 10/9/10 11/10/11 12/11/12 
f 9/8/9 10/9/10 12/11/12 
f 7/6/7 9/8/9 12/11/12 
s 2
f 1/12/13 6/13/14 8/14/14 
f 8/14/14 7/15/15 1/12/13 
s 1
f 13/16/16 14/17/16 15/18/16 
f 15/18/16 16/19/16 13/16/16 
f 17/20/17 18/21/18 19/22/19 
f 19/22/19 20/23/20 17/20/17 
f 4/24/4 10/25/10 19/26/19 
f 19/26/19 18/27/18 4/24/4 
s 4
f 21/28/21 22/29/21 23/30/21 
f 24/31/22 21/28/21 23/30/21 
f 25/32/22 24/31/22 23/30/21 
f 26/33/22 25/32/22 23/30/21 
s 1
f 27/34/23 28/35/24 29/36/25 
f 29/36/25 30/37/26 27/34/23 
s 2
f 27/38/27 31/39/28 32/40/29 
f 32/40/29 33/41/29 27/38/27 
s 1
f 34/42/30 35/43/31 31/44/32 
f 31/44/32 36/45/33 34/42/30 
f 37/46/34 38/47/35 39/48/36 
f 39/48/36 40/49/37 37/46/34 
f 41/50/38 42/51/39 43/52/40 
f 43/52/40 44/53/40 41/50/38 
s 2
f 42/54/41 45/55/42 46/56/43 
f 46/56/43 43/57/43 42/54/41 
s 1
f 45/58/44 47/59/45 48/60/46 
f 48/60/46 46/61/46 45/58/44 
f 49/62/47 50/63/48 51/64/49 
f 51/64/49 52/65/49 49/62/47 
f 44/53/40 43/52/40 24/66/50 
f 24/66/50 25/67/50 44/53/40 
s 2
f 43/57/43 46/56/43 21/68/51 
f 21/68/51 24/69/51 43/57/43 
s 1
f 46/61/46 48/60/46 22/70/52 
f 22/70/52 21/71/52 46/61/46 
f 52/65/49 51/64/49 26/72/53 
f 26/72/53 23/73/53 52/65/49 
f 42/51/39 41/50/38 53/74/54 
f 53/74/54 33/75/55 42/51/39 
f 33/75/55 53/74/54 28/35/24 
f 28/35/24 27/34/23 33/75/55 
f 2/2/2 1/1/1 30/37/26 
f 30/37/26 29/36/25 2/2/2 
s 2
f 1/76/13 7/77/15 36/78/56 
f 36/78/56 30/79/57 1/76/13 
f 30/79/57 36/78/56 31/39/28 
f 31/39/28 27/38/27 30/79/57 
f 45/55/42 42/54/41 33/41/29 
f 33/41/29 32/40/29 45/55/42 
s 1
f 54/80/58 47/59/45 45/58/44 
f 45/58/44 32/81/59 54/80/58 
f 35/43/31 54/80/58 32/81/59 
f 32/81/59 31/44/32 35/43/31 
f 36/45/33 7/6/7 12/11/12 
f 12/11/12 34/42/30 36/45/33 
f 50/63/48 49/62/47 55/82/60 
f 55/82/60 56/83/61 50/63/48 
f 56/83/61 55/82/60 38/47/35 
f 38/47/35 37/46/34 56/83/61 
f 57/84/62 58/85/63 40/49/37 
f 40/49/37 39/48/36 57/84/62 
s 5
f 4/86/4 18/21/18 17/20/17 
f 17/20/17 5/87/5 4/86/4 
f 9/88/9 20/23/20 19/22/19 
f 19/22/19 10/89/10 9/88/9 
s 8
f 6/90/64 5/91/16 59/92/16 
f 59/92/16 60/93/64 6/90/64 
f 5/91/16 17/94/16 59/92/16 
f 17/95/16 20/96/64 61/97/16 
f 61/97/16 59/98/16 17/95/16 
f 20/96/64 9/99/16 61/97/16 
f 9/99/16 8/100/64 62/101/64 
f 62/101/64 61/97/16 9/99/16 
f 8/100/64 6/90/64 60/93/64 
f 60/93/64 62/101/64 8/100/64 
s 2
f 60/93/65 59/92/66 63/102/67 
f 63/102/67 64/103/68 60/93/65 
s 4
f 59/98/69 61/97/69 65/104/70 
f 65/104/70 63/105/70 59/98/69 
s 2
f 61/97/71 62/101/72 66/106/73 
f 66/106/73 65/104/74 61/97/71 
s 4
f 62/101/75 60/93/75 64/103/76 
f 64/103/76 66/106/76 62/101/75 
s 2
f 64/103/68 63/102/67 14/107/77 
f 14/107/77 13/16/78 64/103/68 
s 4
f 63/105/70 65/104/70 15/108/79 
f 15/108/79 14/109/79 63/105/70 
s 2
f 65/104/74 66/106/73 16/19/80 
f 16/19/80 15/108/81 65/104/74 
s 4
f 66/106/76 64/103/76 13/16/82 
f 13/16/82 16/19/83 66/106/76 
s 1
f 2/110/2 58/85/63 3/111/3 
f 12/112/12 11/113/11 57/84/62 
s 8
f 58/85/84 2/110/85 29/114/86 
f 29/114/86 40/49/87 58/85/84 
f 12/112/88 57/84/89 39/48/90 
f 39/48/90 34/115/91 12/112/88 
f 50/63/92 41/116/93 44/117/94 
f 44/117/94 51/64/95 50/63/92 
f 47/118/96 49/62/97 52/65/98 
f 52/65/98 48/119/99 47/118/96 
f 51/64/95 44/117/94 25/120/100 
f 25/120/100 26/72/101 51/64/95 
f 48/119/99 52/65/98 23/73/102 
f 23/73/102 22/121/103 48/119/99 
f 40/49/87 29/114/86 28/122/104 
f 28/122/104 37/46/105 40/49/87 
f 37/46/105 28/122/104 53/123/106 
f 53/123/106 56/83/107 37/46/105 
f 56/83/107 53/123/106 41/116/93 
f 41/116/93 50/63/92 56/83/107 
f 34/115/91 39/48/90 38/47/108 
f 38/47/108 35/124/109 34/115/91 
f 35/124/109 38/47/108 55/82/110 
f 55/82/110 54/125/111 35/124/109 
f 54/125/111 55/82/110 49/62/97 
f 49/62/97 47/118/96 54/125/111 
s 1
f 58/85/63 57/84/62 11/113/11 
f 11/113/11 3/111/3 58/85/63 
f 3/111/3 11/113/11 10/25/10 
f 10/25/10 4/24/4 3/111/3 
# 128 faces

