# 3ds Max Wavefront OBJ Exporter v0.97b - (c)2007 guruware
# File Created: 18.02.2016 14:43:23

mtllib sniper_scope.mtl

#
# object sniper_scope
#

v  0.0193 0.0585 0.0756
v  0.0338 0.0063 0.0786
v  0.0390 0.0048 -0.0818
v  0.0261 0.0807 -0.0838
v  -0.0193 0.0585 0.0756
v  -0.0261 0.0807 -0.0838
v  -0.0390 0.0048 -0.0818
v  -0.0338 0.0063 0.0786
v  0.0390 0.0047 -0.1407
v  0.0207 0.0712 -0.1533
v  -0.0390 0.0047 -0.1407
v  -0.0207 0.0712 -0.1533
v  -0.0149 0.0674 -0.1526
v  0.0149 0.0674 -0.1526
v  -0.0296 0.0131 -0.1410
v  0.0296 0.0131 -0.1410
v  -0.0261 0.0122 0.0783
v  0.0261 0.0122 0.0783
v  0.0149 0.0526 0.0759
v  -0.0149 0.0526 0.0759
v  0.0101 0.0059 0.0628
v  0.0103 0.0056 -0.0682
v  -0.0101 0.0059 0.0628
v  -0.0103 0.0056 -0.0682
v  -0.0149 0.0519 0.0642
v  -0.0261 0.0115 0.0665
v  0.0149 0.0519 0.0642
v  0.0261 0.0115 0.0665
v  0.0101 -0.0004 0.0628
v  0.0103 -0.0007 -0.0682
v  -0.0103 -0.0007 -0.0682
v  -0.0101 -0.0004 0.0628
v  0.0158 0.0645 -0.1296
v  0.0297 0.0135 -0.1268
v  -0.0158 0.0645 -0.1296
v  -0.0297 0.0135 -0.1268
# 36 vertices

vn 0.9694 0.2424 0.0389
vn 0.9627 0.2692 0.0289
vn 0.9834 0.1788 0.0292
vn 0.9817 0.1906 0.0013
vn -0.9694 0.2424 0.0389
vn -0.9817 0.1906 0.0013
vn -0.9834 0.1788 0.0292
vn -0.9627 0.2692 0.0289
vn 0.9776 0.2042 -0.0514
vn 0.9634 0.2449 -0.1090
vn -0.9776 0.2042 -0.0514
vn -0.9634 0.2449 -0.1090
vn 0.0008 0.6381 0.7699
vn 0.0000 1.0000 0.0029
vn -0.0008 0.6381 0.7699
vn 0.0050 0.5286 -0.8488
vn -0.0050 0.5286 -0.8488
vn -0.0029 -0.2004 -0.9797
vn 0.0029 -0.2004 -0.9797
vn 0.0829 -0.1390 -0.9868
vn 0.0755 -0.1269 -0.9890
vn -0.0829 -0.1390 -0.9868
vn -0.0755 -0.1269 -0.9890
vn 0.0010 0.0595 0.9982
vn 0.0012 0.0595 0.9982
vn -0.0012 0.0595 0.9982
vn -0.0010 0.0595 0.9982
vn 0.0015 0.0598 0.9982
vn -0.0015 0.0598 0.9982
vn -0.0076 -0.9999 0.0106
vn 0.0069 -0.9999 0.0153
vn 0.0034 -0.9998 0.0179
vn -0.0117 -0.9993 0.0348
vn -0.0069 -0.9999 0.0153
vn -0.0034 -0.9998 0.0179
vn 0.0076 -0.9999 0.0106
vn 0.0117 -0.9993 0.0348
vn -0.0000 -1.0000 0.0023
vn 0.6053 -0.7947 0.0457
vn 0.6055 -0.7946 0.0457
vn 0.7958 0.6045 -0.0347
vn 0.7961 0.6042 -0.0347
vn -0.6053 -0.7947 0.0457
vn -0.6055 -0.7946 0.0457
vn -0.7961 0.6042 -0.0347
vn -0.7958 0.6045 -0.0347
vn 0.0000 0.0579 0.9983
vn 1.0000 0.0000 0.0017
vn 0.7072 0.0000 -0.7070
vn 0.7081 0.0000 -0.7061
vn -0.7081 0.0000 -0.7061
vn -0.7072 0.0000 -0.7070
vn -1.0000 0.0000 0.0017
vn 0.0000 0.0000 1.0000
vn 0.0000 -1.0000 0.0021
vn -0.6484 -0.7581 -0.0700
vn -0.5267 -0.8456 -0.0867
vn -0.8335 0.5524 -0.0125
vn -0.7891 0.6142 -0.0125
vn 0.6484 -0.7581 -0.0700
vn 0.5267 -0.8456 -0.0867
vn 0.7891 0.6142 -0.0125
vn 0.8335 0.5524 -0.0125
# 63 vertex normals

vt 0.7493 0.4652 0.0000
vt 0.6453 0.4899 0.0000
vt 0.5836 0.1797 0.0000
vt 0.7320 0.1484 0.0000
vt 0.8253 0.4643 0.0000
vt 0.8350 0.1472 0.0000
vt 0.9840 0.1751 0.0000
vt 0.9299 0.4867 0.0000
vt 0.8733 0.8208 0.0000
vt 0.9028 0.9723 0.0000
vt 0.7489 0.9911 0.0000
vt 0.7437 0.8218 0.0000
vt 0.8721 0.6491 0.0000
vt 0.7425 0.6500 0.0000
vt 0.7444 0.4807 0.0000
vt 0.8985 0.4971 0.0000
vt 0.8226 0.0090 0.0000
vt 0.7411 0.0100 0.0000
vt 0.4070 0.2473 0.0000
vt 0.4241 0.2595 0.0000
vt 0.2989 0.2562 0.0000
vt 0.3167 0.2449 0.0000
vt 0.4546 0.0813 0.0000
vt 0.4835 0.0570 0.0000
vt 0.2773 0.0768 0.0000
vt 0.2497 0.0510 0.0000
vt 0.0849 0.4289 0.0000
vt 0.0605 0.4098 0.0000
vt 0.2771 0.4109 0.0000
vt 0.2524 0.4298 0.0000
vt 0.2297 0.5783 0.0000
vt 0.2158 0.5593 0.0000
vt 0.1061 0.5777 0.0000
vt 0.1202 0.5588 0.0000
vt 0.3906 0.8128 0.0000
vt 0.4250 0.7604 0.0000
vt 0.7133 0.7588 0.0000
vt 0.3895 0.6641 0.0000
vt 0.4247 0.7160 0.0000
vt 0.7130 0.7134 0.0000
vt 0.4493 0.3636 0.0000
vt 0.4493 0.4013 0.0000
vt 0.3147 0.4014 0.0000
vt 0.3147 0.3637 0.0000
vt 0.5449 0.3636 0.0000
vt 0.5449 0.4014 0.0000
vt 0.1472 0.3637 0.0000
vt 0.1472 0.4014 0.0000
vt 0.0125 0.4013 0.0000
vt 0.0125 0.3636 0.0000
vt 0.3400 0.5431 0.0000
vt 0.3040 0.4134 0.0000
vt 0.4715 0.4134 0.0000
vt 0.4356 0.5431 0.0000
vt 0.4740 0.8511 0.0000
vt 0.4736 0.8708 0.0000
vt 0.0615 0.8630 0.0000
vt 0.0619 0.8432 0.0000
vt 0.0601 0.9478 0.0000
vt 0.0604 0.9279 0.0000
vt 0.4725 0.9343 0.0000
vt 0.4723 0.9540 0.0000
vt 0.6994 0.7589 0.0000
vt 0.6991 0.7135 0.0000
vt 0.4385 0.7159 0.0000
vt 0.4388 0.7603 0.0000
vt 0.0233 0.3407 0.0000
vt 0.0151 0.2865 0.0000
vt 0.1490 0.3113 0.0000
vt 0.1488 0.3451 0.0000
vt 0.4152 0.3407 0.0000
vt 0.4234 0.2865 0.0000
vt 0.4937 0.2945 0.0000
vt 0.4895 0.3492 0.0000
vt 0.2898 0.3451 0.0000
vt 0.2895 0.3113 0.0000
# 76 texture coords

g sniper_scope
usemtl sniper_scope
f 1/1/1 2/2/2 3/3/3 4/4/4 
f 5/5/5 6/6/6 7/7/7 8/8/8 
f 9/9/9 10/10/10 4/11/4 3/12/3 
f 11/13/11 7/14/7 6/15/6 12/16/12 
f 1/1/13 4/4/14 6/6/14 5/5/15 
f 12/17/16 6/6/14 4/4/14 10/18/17 
f 13/19/18 12/20/16 10/21/17 14/22/19 
f 15/23/20 11/24/21 12/20/16 13/19/18 
f 16/25/22 14/22/19 10/21/17 9/26/23 
f 16/25/22 9/26/23 11/24/21 15/23/20 
f 17/27/24 8/28/25 2/29/26 18/30/27 
f 18/30/27 2/29/26 1/31/13 19/32/28 
f 19/32/28 1/31/13 5/33/15 20/34/29 
f 17/27/24 20/34/29 5/33/15 8/28/25 
f 3/12/30 2/35/31 21/36/32 22/37/33 
f 8/38/34 23/39/35 21/36/32 2/35/31 
f 7/14/36 24/40/37 23/39/35 8/38/34 
f 3/12/30 22/37/33 24/40/37 7/14/36 
f 9/9/38 3/12/30 7/14/36 11/13/38 
f 25/41/39 20/42/40 17/43/41 26/44/42 
f 27/45/43 19/46/44 20/42/40 25/41/39 
f 28/47/45 18/48/46 19/49/44 27/50/43 
f 26/44/42 17/43/41 18/48/46 28/47/45 
f 25/51/47 26/52/47 28/53/47 27/54/47 
f 21/55/48 29/56/48 30/57/49 22/58/50 
f 24/59/51 31/60/52 32/61/53 23/62/53 
f 22/37/50 30/63/49 31/64/52 24/40/51 
f 23/39/54 32/65/54 29/66/54 21/36/54 
f 30/57/55 29/56/55 32/61/55 31/60/55 
f 33/67/56 14/68/57 16/69/58 34/70/59 
f 35/71/60 13/72/61 14/73/57 33/74/56 
f 35/71/60 36/75/62 15/76/63 13/72/61 
f 34/70/59 16/69/58 15/76/63 36/75/62 
# 33 polygons

#
# object sniper_scope_window
#

v  0.0158 0.0645 -0.1296
v  0.0297 0.0135 -0.1268
v  -0.0297 0.0135 -0.1268
v  -0.0158 0.0645 -0.1296
# 4 vertices

vn 0.0000 -0.0564 -0.9984
# 1 vertex normals

vt 0.0824 0.2077 0.0000
vt 0.0405 0.0547 0.0000
vt 0.2188 0.0547 0.0000
vt 0.1769 0.2077 0.0000
# 4 texture coords

g sniper_scope_window
usemtl sniper_scope
f 37/77/64 38/78/64 39/79/64 40/80/64 
# 1 polygons

