# 3ds Max Wavefront OBJ Exporter v0.97b - (c)2007 guruware
# File Created: 08.07.2015 16:52:20

#
# object Base
#

v  -0.4000 0.0000 0.5000
v  0.4000 0.0000 0.5000
v  -0.4000 0.0000 -0.5000
v  0.4000 0.0000 -0.5000
v  -0.4000 0.7000 0.5000
v  0.4000 0.7000 0.5000
v  -0.4000 0.7000 -0.5000
v  0.4000 0.7000 -0.5000
v  -0.2000 0.7000 -0.0000
v  0.2000 0.7000 -0.0000
v  0.2000 0.7000 -0.4000
v  -0.2000 0.7000 -0.4000
v  -0.2000 1.7000 -0.0000
v  0.2000 1.7000 -0.0000
v  0.2000 1.5400 -0.4000
v  -0.2000 1.5400 -0.4000
v  -0.4000 1.9000 0.5000
v  0.4000 1.9000 0.5000
v  0.4000 1.5000 -0.5000
v  -0.4000 1.5000 -0.5000
v  -0.4000 2.3000 0.5000
v  0.4000 2.3000 0.5000
v  0.4000 2.3000 -0.5000
v  -0.4000 2.3000 -0.5000
# 24 vertices

vn 0.0000 -1.0000 -0.0000
vn 0.0000 -1.0000 -0.0000
vn 0.0000 -1.0000 -0.0000
vn 0.0000 -1.0000 -0.0000
vn 0.0000 -1.0000 -0.0000
vn 0.0000 -1.0000 -0.0000
vn 0.0000 1.0000 -0.0000
vn 0.0000 1.0000 -0.0000
vn 0.0000 1.0000 -0.0000
vn 0.0000 1.0000 -0.0000
vn 0.0000 1.0000 -0.0000
vn 0.0000 1.0000 -0.0000
vn 0.0000 0.0000 1.0000
vn 0.0000 0.0000 1.0000
vn 0.0000 0.0000 1.0000
vn 0.0000 0.0000 1.0000
vn 0.0000 0.0000 1.0000
vn 0.0000 0.0000 1.0000
vn 1.0000 0.0000 -0.0000
vn 1.0000 0.0000 -0.0000
vn 1.0000 0.0000 -0.0000
vn 1.0000 0.0000 -0.0000
vn 1.0000 0.0000 -0.0000
vn 1.0000 0.0000 -0.0000
vn 0.0000 0.0000 -1.0000
vn 0.0000 0.0000 -1.0000
vn 0.0000 0.0000 -1.0000
vn 0.0000 0.0000 -1.0000
vn 0.0000 0.0000 -1.0000
vn 0.0000 0.0000 -1.0000
vn -1.0000 0.0000 -0.0000
vn -1.0000 0.0000 -0.0000
vn -1.0000 0.0000 -0.0000
vn -1.0000 0.0000 -0.0000
vn -1.0000 0.0000 -0.0000
vn -1.0000 0.0000 -0.0000
vn 0.0000 1.0000 -0.0000
vn 0.0000 1.0000 -0.0000
vn 0.0000 1.0000 -0.0000
vn 0.0000 1.0000 -0.0000
vn 0.0000 1.0000 -0.0000
vn 0.0000 1.0000 -0.0000
vn 0.0000 1.0000 -0.0000
vn 0.0000 1.0000 -0.0000
vn 0.0000 1.0000 -0.0000
vn 0.0000 1.0000 -0.0000
vn 0.0000 1.0000 -0.0000
vn 0.0000 1.0000 -0.0000
vn 0.0000 1.0000 -0.0000
vn 0.0000 1.0000 -0.0000
vn 0.0000 1.0000 -0.0000
vn 0.0000 1.0000 -0.0000
vn 0.0000 1.0000 -0.0000
vn 0.0000 1.0000 -0.0000
vn 0.0000 1.0000 -0.0000
vn 0.0000 1.0000 -0.0000
vn 0.0000 1.0000 -0.0000
vn 0.0000 1.0000 -0.0000
vn 0.0000 1.0000 -0.0000
vn 0.0000 1.0000 -0.0000
vn 0.0000 0.0000 1.0000
vn 0.0000 0.0000 1.0000
vn 0.0000 0.0000 1.0000
vn 0.0000 0.0000 1.0000
vn 0.0000 0.0000 1.0000
vn 0.0000 0.0000 1.0000
vn 1.0000 0.0000 -0.0000
vn 1.0000 0.0000 -0.0000
vn 1.0000 0.0000 -0.0000
vn 1.0000 0.0000 -0.0000
vn 1.0000 0.0000 -0.0000
vn 1.0000 0.0000 -0.0000
vn 0.0000 0.0000 -1.0000
vn 0.0000 0.0000 -1.0000
vn 0.0000 0.0000 -1.0000
vn 0.0000 0.0000 -1.0000
vn 0.0000 0.0000 -1.0000
vn 0.0000 0.0000 -1.0000
vn -1.0000 0.0000 -0.0000
vn -1.0000 0.0000 -0.0000
vn -1.0000 0.0000 -0.0000
vn -1.0000 0.0000 -0.0000
vn -1.0000 0.0000 -0.0000
vn -1.0000 0.0000 -0.0000
vn 0.0000 -0.9285 0.3714
vn 0.0000 -0.9285 0.3714
vn 0.0000 -0.9285 0.3714
vn -0.0000 -0.9285 0.3714
vn -0.0000 -0.9285 0.3714
vn -0.0000 -0.9285 0.3714
vn -0.0000 -0.9285 0.3714
vn -0.0000 -0.9285 0.3714
vn -0.0000 -0.9285 0.3714
vn -0.0000 -0.9285 0.3714
vn -0.0000 -0.9285 0.3714
vn -0.0000 -0.9285 0.3714
vn 0.0000 -0.9285 0.3714
vn 0.0000 -0.9285 0.3714
vn 0.0000 -0.9285 0.3714
vn -0.0000 -0.9285 0.3714
vn -0.0000 -0.9285 0.3714
vn -0.0000 -0.9285 0.3714
vn 0.0000 -0.9285 0.3714
vn 0.0000 -0.9285 0.3714
vn 0.0000 -0.9285 0.3714
vn 0.0000 -0.9285 0.3714
vn 0.0000 -0.9285 0.3714
vn 0.0000 -0.9285 0.3714
vn -0.0000 0.0000 1.0000
vn -0.0000 0.0000 1.0000
vn -0.0000 0.0000 1.0000
vn 0.0000 0.0000 1.0000
vn 0.0000 0.0000 1.0000
vn 0.0000 0.0000 1.0000
vn 1.0000 0.0000 -0.0000
vn 1.0000 0.0000 -0.0000
vn 1.0000 0.0000 -0.0000
vn 1.0000 0.0000 -0.0000
vn 1.0000 0.0000 -0.0000
vn 1.0000 0.0000 -0.0000
vn 0.0000 0.0000 -1.0000
vn 0.0000 0.0000 -1.0000
vn 0.0000 0.0000 -1.0000
vn 0.0000 -0.0000 -1.0000
vn 0.0000 -0.0000 -1.0000
vn 0.0000 -0.0000 -1.0000
vn -1.0000 0.0000 -0.0000
vn -1.0000 0.0000 -0.0000
vn -1.0000 0.0000 -0.0000
vn -1.0000 0.0000 -0.0000
vn -1.0000 0.0000 -0.0000
vn -1.0000 0.0000 -0.0000
# 132 vertex normals

vt 0.4375 0.4531 0.0000
vt 0.4375 0.7344 0.0000
vt 0.6406 0.7344 0.0000
vt 0.6406 0.4531 0.0000
vt 0.7031 0.1563 0.0000
vt 1.0000 0.1563 0.0000
vt 0.9219 0.3750 0.0000
vt 0.7813 0.3750 0.0000
vt 0.6406 0.7500 0.0000
vt 0.4375 0.7500 0.0000
vt 0.4375 0.9219 0.0000
vt 0.6406 0.9219 0.0000
vt 0.3594 -0.0000 0.0000
vt 0.6406 -0.0000 0.0000
vt 0.6406 0.1719 0.0000
vt 0.3594 0.1719 0.0000
vt 0.4375 0.1719 0.0000
vt 0.6406 0.1719 0.0000
vt 0.6406 0.3438 0.0000
vt 0.4375 0.3438 0.0000
vt 0.6406 -0.0000 0.0000
vt 0.3594 -0.0000 0.0000
vt 0.3594 0.1719 0.0000
vt 0.6406 0.1719 0.0000
vt 0.8438 0.5938 0.0000
vt 0.7969 0.6875 0.0000
vt 0.6875 0.6875 0.0000
vt 0.6875 0.6875 0.0000
vt 0.2188 0.4688 0.0000
vt 0.0781 0.4688 0.0000
vt -0.0000 0.2344 0.0000
vt 0.2969 0.2344 0.0000
vt 0.0781 0.6719 0.0000
vt 0.0000 0.7031 0.0000
vt 0.2188 0.6719 0.0000
vt 0.2969 0.7031 0.0000
vt 0.4375 0.4531 0.0000
vt 0.6406 0.4531 0.0000
vt 0.6406 0.7344 0.0000
vt 0.4375 0.7344 0.0000
vt 1.0000 0.5938 0.0000
vt 0.9219 0.5469 0.0000
vt 0.7031 0.5938 0.0000
vt 0.7813 0.5469 0.0000
vt 0.2344 0.7344 0.0000
vt 0.3281 0.7344 0.0000
vt 0.3281 0.9844 0.0000
vt 0.2344 0.9844 0.0000
vt 0.7969 0.6875 0.0000
vt 0.7969 0.9688 0.0000
vt 0.6875 0.9219 0.0000
vt 1.0000 0.5938 0.0000
vt 1.0000 1.0000 0.0000
vt 0.8438 1.0000 0.0000
vt 0.6875 0.9219 0.0000
vt 0.7969 0.9688 0.0000
vt 0.2969 0.1250 0.0000
vt 0.0000 0.0156 0.0000
vt 0.0000 0.2188 0.0000
vt 0.2969 0.2188 0.0000
vt 0.4375 0.3438 0.0000
vt 0.6406 0.3438 0.0000
vt 0.6406 0.4531 0.0000
vt 0.4375 0.4531 0.0000
vt 0.0000 0.0156 0.0000
vt 0.2969 0.1250 0.0000
vt 0.2969 0.2188 0.0000
vt 0.0000 0.2188 0.0000
vt -0.0000 0.7500 0.0000
vt 0.1719 0.7500 0.0000
vt 0.1719 0.9688 0.0000
vt 0.0000 0.9688 0.0000
# 72 texture coords

g Base
s 2
f 1/1/1 3/2/2 4/3/3 
f 4/3/4 2/4/5 1/1/6 
s 4
f 21/37/7 22/38/8 23/39/9 
f 23/39/10 24/40/11 21/37/12 
s 8
f 1/9/13 2/10/14 6/11/15 
f 6/11/16 5/12/17 1/9/18 
s 16
f 2/13/19 4/14/20 8/15/21 
f 8/15/22 6/16/23 2/13/24 
s 32
f 4/17/25 3/18/26 7/19/27 
f 7/19/28 8/20/29 4/17/30 
s 64
f 3/21/31 1/22/32 5/23/33 
f 5/23/34 7/24/35 3/21/36 
s off
f 5/5/37 6/6/38 10/7/39 
f 10/7/40 9/8/41 5/5/42 
f 6/6/43 8/41/44 11/42/45 
f 11/42/46 10/7/47 6/6/48 
f 8/41/49 7/43/50 12/44/51 
f 12/44/52 11/42/53 8/41/54 
f 7/43/55 5/5/56 9/8/57 
f 9/8/58 12/44/59 7/43/60 
f 9/25/61 10/52/62 14/53/63 
f 14/53/64 13/54/65 9/25/66 
f 10/26/67 11/27/68 15/55/69 
f 15/55/70 14/56/71 10/26/72 
f 11/45/73 12/46/74 16/47/75 
f 16/47/76 15/48/77 11/45/78 
f 12/28/79 9/49/80 13/50/81 
f 13/50/82 16/51/83 12/28/84 
f 13/29/85 14/30/86 18/31/87 
f 18/31/88 17/32/89 13/29/90 
f 14/30/91 15/33/92 19/34/93 
f 19/34/94 18/31/95 14/30/96 
f 15/33/97 16/35/98 20/36/99 
f 20/36/100 19/34/101 15/33/102 
f 20/36/103 16/35/104 13/29/105 
f 13/29/106 17/32/107 20/36/108 
f 17/61/109 18/62/110 22/63/111 
f 22/63/112 21/64/113 17/61/114 
f 18/57/115 19/58/116 23/59/117 
f 23/59/118 22/60/119 18/57/120 
f 19/69/121 20/70/122 24/71/123 
f 24/71/124 23/72/125 19/69/126 
f 20/65/127 17/66/128 21/67/129 
f 21/67/130 24/68/131 20/65/132 
# 44 faces

#
# object Rod
#

v  0.1000 0.4000 0.2450
v  0.0500 0.4000 0.1584
v  0.0500 1.9000 0.1584
v  0.1000 1.9000 0.2450
v  -0.0500 0.4000 0.1584
v  -0.0500 1.9000 0.1584
v  -0.1000 0.4000 0.2450
v  -0.1000 1.9000 0.2450
v  -0.0500 0.4000 0.3316
v  -0.0500 1.9000 0.3316
v  0.0500 0.4000 0.3316
v  0.0500 1.9000 0.3316
# 12 vertices

vn 0.8660 0.0000 -0.5000
vn 0.8660 0.0000 -0.5000
vn 0.8660 0.0000 -0.5000
vn 0.8660 0.0000 -0.5000
vn 0.8660 0.0000 -0.5000
vn 0.8660 0.0000 -0.5000
vn -0.0000 0.0000 -1.0000
vn -0.0000 0.0000 -1.0000
vn -0.0000 0.0000 -1.0000
vn -0.0000 0.0000 -1.0000
vn -0.0000 0.0000 -1.0000
vn -0.0000 0.0000 -1.0000
vn -0.8660 0.0000 -0.5000
vn -0.8660 0.0000 -0.5000
vn -0.8660 0.0000 -0.5000
vn -0.8660 0.0000 -0.5000
vn -0.8660 0.0000 -0.5000
vn -0.8660 0.0000 -0.5000
vn -0.8660 0.0000 0.5000
vn -0.8660 0.0000 0.5000
vn -0.8660 0.0000 0.5000
vn -0.8660 0.0000 0.5000
vn -0.8660 0.0000 0.5000
vn -0.8660 0.0000 0.5000
vn 0.0000 0.0000 1.0000
vn 0.0000 0.0000 1.0000
vn 0.0000 0.0000 1.0000
vn 0.0000 0.0000 1.0000
vn 0.0000 0.0000 1.0000
vn 0.0000 0.0000 1.0000
vn 0.8660 0.0000 0.5000
vn 0.8660 0.0000 0.5000
vn 0.8660 0.0000 0.5000
vn 0.8660 0.0000 0.5000
vn 0.8660 0.0000 0.5000
vn 0.8660 0.0000 0.5000
# 36 vertex normals

vt 0.6406 0.0156 0.0000
vt 0.7031 0.0156 0.0000
vt 0.7031 0.6563 0.0000
vt 0.6406 0.6563 0.0000
vt 0.6406 0.0156 0.0000
vt 0.7031 0.0156 0.0000
vt 0.7031 0.6563 0.0000
vt 0.6406 0.6563 0.0000
vt 0.6406 0.0156 0.0000
vt 0.7031 0.0156 0.0000
vt 0.7031 0.6563 0.0000
vt 0.6406 0.6563 0.0000
vt 0.6406 0.0156 0.0000
vt 0.7031 0.0156 0.0000
vt 0.7031 0.6563 0.0000
vt 0.6406 0.6563 0.0000
vt 0.6406 0.0156 0.0000
vt 0.7031 0.0156 0.0000
vt 0.7031 0.6563 0.0000
vt 0.6406 0.6563 0.0000
vt 0.6406 0.0156 0.0000
vt 0.7031 0.0156 0.0000
vt 0.7031 0.6563 0.0000
vt 0.6406 0.6563 0.0000
# 24 texture coords

g Rod
s off
f 25/73/133 26/74/134 27/75/135 
f 27/75/136 28/76/137 25/73/138 
f 26/77/139 29/78/140 30/79/141 
f 30/79/142 27/80/143 26/77/144 
f 29/81/145 31/82/146 32/83/147 
f 32/83/148 30/84/149 29/81/150 
f 31/85/151 33/86/152 34/87/153 
f 34/87/154 32/88/155 31/85/156 
f 33/89/157 35/90/158 36/91/159 
f 36/91/160 34/92/161 33/89/162 
f 35/93/163 25/94/164 28/95/165 
f 28/95/166 36/96/167 35/93/168 
# 12 faces

