# 3ds Max Wavefront OBJ Exporter v0.97b - (c)2007 guruware
# File Created: 02.02.2016 18:14:04

mtllib inscriber.mtl

#
# object base
#

v  1.0000 0.0000 1.0000
v  0.0000 0.0000 1.0000
v  0.0000 0.0000 0.0000
v  1.0000 0.0000 -0.0000
v  0.7467 0.6875 0.2483
v  0.2467 0.6875 0.2483
v  0.2467 0.6875 0.7483
v  0.7467 0.6875 0.7483
v  1.0000 0.4375 -0.0000
v  0.9967 0.4375 0.1858
v  0.9967 0.4375 0.8108
v  1.0000 0.4375 1.0000
v  0.0000 0.4375 0.0000
v  0.0000 0.4375 1.0000
v  -0.0033 0.4375 0.8108
v  -0.0033 0.4375 0.1858
v  0.9967 0.6250 0.1858
v  0.9967 0.6250 0.8108
v  0.1842 0.6250 0.1858
v  0.8092 0.6250 0.1858
v  -0.0033 0.6250 0.8108
v  -0.0033 0.6250 0.1858
v  0.8092 0.6250 0.8108
v  0.1842 0.6250 0.8108
v  0.2467 0.6250 0.2483
v  0.7467 0.6250 0.2483
v  0.2467 0.6250 0.7483
v  0.7467 0.6250 0.7483
# 28 vertices

vn 0.0000 -1.0000 -0.0000
vn 0.0000 1.0000 -0.0000
vn 1.0000 0.0053 -0.0036
vn 1.0000 -0.0000 -0.0000
vn 0.9999 0.0107 0.0047
vn 0.9993 0.0355 0.0150
vn 1.0000 0.0048 -0.0065
vn 0.9998 0.0000 -0.0175
vn -0.0000 0.0000 -1.0000
vn -1.0000 -0.0054 -0.0036
vn -1.0000 0.0000 0.0000
vn -0.9999 -0.0105 0.0046
vn -0.9993 -0.0349 0.0148
vn -1.0000 -0.0048 -0.0066
vn -0.9998 0.0000 -0.0178
vn 0.0000 -0.0000 1.0000
vn 0.0000 0.0000 1.0000
vn 1.0000 0.0000 -0.0000
vn -0.0000 0.7040 -0.7102
vn -1.0000 0.0000 -0.0000
vn 0.0000 0.7102 0.7040
vn 0.7071 0.7071 0.0126
vn 0.7071 0.7071 -0.0124
vn -0.7071 0.7071 0.0124
vn -0.7071 0.7071 -0.0126
vn 0.0000 0.0000 -1.0000
# 26 vertex normals

vt 0.3750 0.0000 0.0000
vt 0.3750 0.3750 0.0000
vt 0.0000 0.3750 0.0000
vt 0.0000 0.0000 0.0000
vt 0.2813 0.5156 0.0000
vt 0.2813 0.7656 0.0000
vt 0.0313 0.7656 0.0000
vt 0.0313 0.5156 0.0000
vt 0.5000 -0.0000 0.0000
vt 1.0000 -0.0000 0.0000
vt 1.0000 0.2188 0.0000
vt 0.9063 0.2188 0.0000
vt 0.5938 0.2188 0.0000
vt 0.5000 0.2188 0.0000
vt 0.5000 0.5156 0.0000
vt 1.0000 0.5156 0.0000
vt 1.0000 0.7344 0.0000
vt 0.5000 0.7344 0.0000
vt 0.5000 0.2969 0.0000
vt 1.0000 0.2969 0.0000
vt 0.9063 0.2969 0.0000
vt 0.5938 0.2969 0.0000
vt 0.4063 0.7344 0.0000
vt 0.9063 0.7344 0.0000
vt 0.8125 0.8281 0.0000
vt 0.5000 0.8281 0.0000
vt 0.4063 0.8281 0.0000
vt 0.9063 0.8281 0.0000
vt 0.8125 0.9219 0.0000
vt 0.5000 0.9219 0.0000
vt 0.9063 0.9219 0.0000
vt 0.4063 0.9219 0.0000
vt 0.3125 0.7344 0.0000
vt 0.3125 0.8281 0.0000
vt 0.3125 0.4844 0.0000
vt -0.0000 0.4844 0.0000
vt -0.0000 0.3906 0.0000
vt 0.3125 0.3906 0.0000
vt 1.0000 0.8281 0.0000
vt 1.0000 0.9219 0.0000
vt 0.3125 0.9219 0.0000
vt 0.0000 0.7969 0.0000
vt 0.3125 0.7969 0.0000
vt 0.3125 0.8906 0.0000
vt 0.0000 0.8906 0.0000
vt 0.3438 0.3906 0.0000
vt 0.3438 0.6406 0.0000
vt 0.3750 0.6406 0.0000
vt 0.3750 0.3906 0.0000
# 49 texture coords

g base
usemtl inscriber
f 1/1/1 2/2/1 3/3/1 4/4/1 
f 5/5/2 6/6/2 7/7/2 8/8/2 
f 1/9/3 4/10/4 9/11/5 10/12/6 
f 1/9/3 10/12/6 11/13/7 12/14/8 
f 4/15/9 3/16/9 13/17/9 9/18/9 
f 3/9/10 2/10/11 14/11/12 15/12/13 
f 3/9/10 15/12/13 16/13/14 13/14/15 
f 2/19/16 1/20/17 12/16/16 14/15/16 
f 10/12/18 17/21/18 18/22/18 11/13/18 
f 9/23/19 13/24/19 19/25/19 20/26/19 
f 16/13/20 15/12/20 21/21/20 22/22/20 
f 14/27/21 12/28/21 23/29/21 24/30/21 
f 10/27/22 9/23/22 20/26/22 
f 23/29/23 12/28/23 11/31/23 
f 15/32/24 14/27/24 24/30/24 
f 19/25/25 13/24/25 16/28/25 
f 10/33/26 20/27/26 17/34/26 
f 20/35/2 23/36/2 18/37/2 17/38/2 
f 23/31/16 11/39/16 18/40/16 
f 15/34/17 24/32/17 21/41/17 
f 24/42/2 19/43/2 22/44/2 21/45/2 
f 19/28/9 16/17/9 22/39/9 
f 20/35/2 19/43/2 25/6/2 26/5/2 
f 19/43/2 24/42/2 27/7/2 25/6/2 
f 24/42/2 23/36/2 28/8/2 27/7/2 
f 23/36/2 20/35/2 26/5/2 28/8/2 
f 26/46/26 25/47/26 6/48/26 5/49/26 
f 25/46/20 27/47/20 7/48/20 6/49/20 
f 27/46/16 28/47/16 8/48/16 7/49/16 
f 28/46/4 26/47/4 5/48/4 8/49/4 
# 22 polygons - 8 triangles

