# 3ds Max Wavefront OBJ Exporter v0.97b - (c)2007 guruware
# File Created: 24.03.2015 14:03:26

#
# object Front
#

v  -0.5000 -0.5000 0.5000
v  0.5000 -0.5000 0.5000
v  0.4370 -0.4370 0.5000
v  -0.1255 -0.4370 0.5000
v  -0.4370 -0.4370 0.5000
v  0.5000 -0.1245 0.5000
v  0.4370 -0.1245 0.5000
v  0.5000 0.5000 0.5000
v  -0.5000 0.5000 0.5000
v  -0.4370 0.4370 0.5000
v  0.4370 0.4370 0.5000
v  -0.1255 -0.4370 0.4375
v  -0.4370 -0.4370 0.4375
v  -0.4370 0.4370 0.4375
v  0.4370 0.4370 0.4375
v  0.4370 -0.1245 0.4375
v  0.1245 -0.1245 0.4375
v  0.1245 -0.1245 0.5000
# 18 vertices

vn 0.0000 0.0000 1.0000
vn 0.0000 1.0000 -0.0000
vn -0.0000 1.0000 -0.0000
vn 0.0000 -1.0000 -0.0000
vn 1.0000 0.0000 -0.0000
vn -0.7809 0.6247 -0.0000
vn -1.0000 0.0000 -0.0000
# 7 vertex normals

vt 0.0000 0.5000 0.0000
vt 0.5000 0.5000 0.0000
vt 0.4688 0.5313 0.0000
vt 0.1875 0.5313 0.0000
vt 0.0313 0.5313 0.0000
vt 0.5000 0.6875 0.0000
vt 0.4688 0.6875 0.0000
vt 0.5000 1.0000 0.0000
vt 0.0000 1.0000 0.0000
vt 0.0313 0.9688 0.0000
vt 0.4688 0.9688 0.0000
vt 0.1563 0.5000 0.0630
vt 0.1563 0.5313 0.0630
vt 0.0313 0.5313 0.0630
vt 0.0313 0.5000 0.0630
vt 0.0313 0.5000 0.9370
vt 0.4688 0.5000 0.9370
vt 0.4688 0.5313 0.9370
vt 0.0313 0.5313 0.9370
vt 0.0000 0.9688 0.0630
vt 0.0000 0.5313 0.0630
vt 0.0313 0.9688 0.0630
vt 0.4688 0.7188 0.0000
vt 0.3438 0.7188 0.0000
vt 0.3438 0.6875 0.0000
vt 0.4688 0.9688 0.9370
vt 0.4688 0.6875 0.9370
vt 0.5000 0.6875 0.9370
vt 0.5000 0.9688 0.9370
vt 0.4688 0.1875 0.0000
vt 0.4688 0.4688 0.0000
vt 0.0313 0.4688 0.0000
vt 0.3438 0.1875 0.0000
vt 0.0313 0.0313 0.0000
vt 0.1875 0.0313 0.0000
# 35 texture coords

g Front
s off
f 1/1/1 2/2/1 3/3/1 
f 1/1/1 3/3/1 4/4/1 
f 1/1/1 4/4/1 5/5/1 
f 6/6/1 7/7/1 3/3/1 
f 3/3/1 2/2/1 6/6/1 
f 8/8/1 9/9/1 10/10/1 
f 10/10/1 11/11/1 8/8/1 
f 9/9/1 1/1/1 5/5/1 
f 5/5/1 10/10/1 9/9/1 
f 4/12/2 12/13/2 13/14/2 
f 13/14/3 5/15/3 4/12/3 
f 11/16/4 10/17/4 14/18/4 
f 14/18/4 15/19/4 11/16/4 
f 10/20/5 5/21/5 13/14/5 
f 13/14/5 14/22/5 10/20/5 
f 7/7/2 16/23/2 17/24/2 
f 17/24/2 18/25/2 7/7/2 
f 4/4/1 3/3/1 7/7/1 
f 7/7/1 18/25/1 4/4/1 
f 17/23/6 12/24/6 4/25/6 
f 4/25/6 18/7/6 17/23/6 
f 6/6/1 8/8/1 11/11/1 
f 11/11/1 7/7/1 6/6/1 
f 15/26/7 16/27/7 7/28/7 
f 7/28/7 11/29/7 15/26/7 
f 16/30/1 15/31/1 14/32/1 
f 14/32/1 17/33/1 16/30/1 
f 17/33/1 14/32/1 13/34/1 
f 13/34/1 12/35/1 17/33/1 
# 29 faces

#
# object Inside
#

v  0.3845 0.3845 0.4375
v  -0.3845 0.3845 0.4375
v  -0.3845 0.3845 -0.3750
v  0.3845 0.3845 -0.3750
v  -0.3845 -0.3845 0.4375
v  -0.3845 -0.3845 -0.3750
v  0.3845 -0.3845 0.4375
v  0.3845 -0.3845 -0.3750
# 8 vertices

vn -0.0000 -1.0000 0.0000
vn 1.0000 -0.0000 -0.0000
vn 1.0000 0.0000 -0.0000
vn -1.0000 0.0000 0.0000
vn -0.0000 1.0000 0.0000
vn -0.0000 0.0000 1.0000
vn 0.0000 0.0000 1.0000
# 7 vertex normals

vt 1.0000 0.0000 0.0000
vt 0.5000 0.0000 0.0000
vt 0.5000 0.5000 0.0000
vt 1.0000 0.5000 0.0000
vt 0.5000 1.0000 0.0000
vt 1.0000 1.0000 0.0000
vt 1.0000 0.7188 0.0000
# 7 texture coords

g Inside
s off
f 19/36/8 20/37/8 21/38/8 
f 21/38/8 22/39/8 19/36/8 
f 20/40/9 23/38/9 24/39/9 
f 24/39/10 21/41/10 20/40/10 
f 25/39/11 19/42/11 22/40/11 
f 22/40/11 26/38/11 25/39/11 
f 23/37/12 25/36/12 26/39/12 
f 26/39/12 24/38/12 23/37/12 
f 24/38/13 26/39/13 22/41/13 
f 22/41/14 21/40/14 24/38/14 
# 10 faces

#
# object Vents
#

v  -0.5000 0.3750 -0.1875
v  -0.5000 0.3750 0.1875
v  -0.5000 0.5000 0.5000
v  -0.5000 0.5000 -0.5000
v  -0.5000 -0.3125 0.3125
v  -0.5000 -0.1875 0.3750
v  -0.5000 -0.1875 0.3125
v  -0.5000 -0.5000 -0.5000
v  -0.5000 -0.3125 -0.1875
v  -0.5000 -0.3125 -0.3125
v  -0.5000 -0.5000 0.5000
v  -0.5000 -0.3750 0.1875
v  -0.5000 -0.3750 -0.1875
v  -0.5000 0.1875 0.3750
v  -0.5000 0.3125 0.1875
v  -0.5000 0.3125 0.3125
v  -0.5000 0.1875 0.3125
v  -0.5000 -0.3125 0.1875
v  -0.5000 0.1875 -0.3750
v  -0.5000 0.1875 -0.3125
v  -0.5000 0.3125 -0.3125
v  -0.5000 0.3125 -0.1875
v  -0.5000 -0.1875 -0.3750
v  -0.5000 -0.1875 -0.3125
v  -0.4402 0.3750 -0.1875
v  -0.4402 0.3750 0.1875
v  -0.4402 0.3125 0.1875
v  -0.4402 0.3125 0.3125
v  -0.4402 0.3125 -0.3125
v  -0.4402 0.3125 -0.1875
v  -0.4402 0.1875 -0.3750
v  -0.4402 0.1875 -0.3125
v  -0.4402 0.1875 0.3125
v  -0.4402 0.1875 0.3750
v  -0.4402 -0.3750 0.1875
v  -0.4402 -0.3750 -0.1875
v  -0.4402 -0.3125 -0.1875
v  -0.4402 -0.3125 -0.3125
v  -0.4402 -0.3125 0.3125
v  -0.4402 -0.3125 0.1875
v  -0.4402 -0.1875 -0.3125
v  -0.4402 -0.1875 -0.3750
v  -0.4402 -0.1875 0.3750
v  -0.4402 -0.1875 0.3125
v  0.5000 0.3750 -0.1875
v  0.5000 0.5000 -0.5000
v  0.5000 0.5000 0.5000
v  0.5000 0.3750 0.1875
v  0.5000 -0.3125 0.3125
v  0.5000 -0.1875 0.3125
v  0.5000 -0.1875 0.3750
v  0.5000 -0.5000 -0.5000
v  0.5000 -0.3125 -0.3125
v  0.5000 -0.3125 -0.1875
v  0.5000 -0.5000 0.5000
v  0.5000 -0.3750 -0.1875
v  0.5000 -0.3750 0.1875
v  0.5000 0.1875 0.3750
v  0.5000 0.3125 0.3125
v  0.5000 0.3125 0.1875
v  0.5000 0.1875 0.3125
v  0.5000 -0.3125 0.1875
v  0.5000 0.1875 -0.3750
v  0.5000 0.3125 -0.3125
v  0.5000 0.1875 -0.3125
v  0.5000 0.3125 -0.1875
v  0.5000 -0.1875 -0.3750
v  0.5000 -0.1875 -0.3125
v  0.4402 0.3750 0.1875
v  0.4402 0.3750 -0.1875
v  0.4402 0.3125 0.3125
v  0.4402 0.3125 0.1875
v  0.4402 0.3125 -0.1875
v  0.4402 0.3125 -0.3125
v  0.4402 0.1875 -0.3125
v  0.4402 0.1875 -0.3750
v  0.4402 0.1875 0.3750
v  0.4402 0.1875 0.3125
v  0.4402 -0.3750 -0.1875
v  0.4402 -0.3750 0.1875
v  0.4402 -0.3125 -0.3125
v  0.4402 -0.3125 -0.1875
v  0.4402 -0.3125 0.1875
v  0.4402 -0.3125 0.3125
v  0.4402 -0.1875 -0.3750
v  0.4402 -0.1875 -0.3125
v  0.4402 -0.1875 0.3125
v  0.4402 -0.1875 0.3750
# 88 vertices

vn -1.0000 0.0000 -0.0000
vn 0.0000 -1.0000 -0.0000
vn 0.0000 1.0000 -0.0000
vn -0.0000 1.0000 -0.0000
vn 0.0000 0.0000 1.0000
vn 0.0000 0.0000 -1.0000
vn -0.0000 -0.0000 1.0000
vn 0.0000 -0.0000 1.0000
vn -0.0000 0.0000 -1.0000
vn 1.0000 0.0000 -0.0000
# 10 vertex normals

vt 0.6875 0.8750 0.0000
vt 0.3125 0.8750 0.0000
vt 0.0000 1.0000 0.0000
vt 1.0000 1.0000 0.0000
vt 0.1875 0.1875 0.0000
vt 0.1250 0.3125 0.0000
vt 0.1875 0.3125 0.0000
vt 1.0000 0.0000 0.0000
vt 0.6875 0.1875 0.0000
vt 0.8125 0.1875 0.0000
vt 0.0000 0.0000 0.0000
vt 0.3125 0.1250 0.0000
vt 0.6875 0.1250 0.0000
vt 0.1250 0.6875 0.0000
vt 0.3125 0.8125 0.0000
vt 0.1875 0.8125 0.0000
vt 0.1875 0.6875 0.0000
vt 0.3125 0.1875 0.0000
vt 0.8750 0.6875 0.0000
vt 0.8125 0.6875 0.0000
vt 0.8125 0.8125 0.0000
vt 0.6875 0.8125 0.0000
vt 0.8750 0.3125 0.0000
vt 0.8125 0.3125 0.0000
vt 0.8750 0.3750 0.0000
vt 0.8750 0.6250 0.0000
vt 0.9375 0.6250 0.0000
vt 0.9375 0.3750 0.0000
vt 0.9375 0.3125 0.0000
vt 0.9375 0.6875 0.0000
vt 0.8750 0.7500 0.0000
vt 0.9375 0.7500 0.0000
vt 0.8750 0.2500 0.0000
vt 0.9375 0.2500 0.0000
vt 0.0625 0.6250 0.0000
vt 0.0625 0.3125 0.0000
vt 0.1250 0.6250 0.0000
vt 0.0625 0.6875 0.0000
vt 0.0625 0.2500 0.0000
vt 0.1250 0.2500 0.0000
vt 0.0625 0.7500 0.0000
vt 0.1250 0.7500 0.0000
vt 0.0625 0.3750 0.0000
vt 0.1250 0.3750 0.0000
# 44 texture coords

g Vents
s 64
f 27/43/15 28/44/15 29/45/15 
f 29/45/15 30/46/15 27/43/15 
f 31/47/15 32/48/15 33/49/15 
f 34/50/15 35/51/15 36/52/15 
f 37/53/15 38/54/15 39/55/15 
f 39/55/15 34/50/15 37/53/15 
f 37/53/15 31/47/15 38/54/15 
f 37/53/15 29/45/15 40/56/15 
f 40/56/15 32/48/15 37/53/15 
f 28/44/15 41/57/15 42/58/15 
f 42/58/15 43/59/15 40/56/15 
f 29/45/15 28/44/15 42/58/15 
f 29/45/15 42/58/15 40/56/15 
f 31/47/15 37/53/15 32/48/15 
f 31/47/15 44/60/15 38/54/15 
f 45/61/15 46/62/15 47/63/15 
f 47/63/15 48/64/15 27/43/15 
f 30/46/15 34/50/15 49/65/15 
f 49/65/15 45/61/15 30/46/15 
f 30/46/15 45/61/15 47/63/15 
f 30/46/15 47/63/15 27/43/15 
f 36/52/15 50/66/15 49/65/15 
f 34/50/15 36/52/15 49/65/15 
f 34/50/15 39/55/15 35/51/15 
s off
f 28/67/16 27/68/16 51/69/16 
f 51/69/16 52/70/16 28/67/16 
f 42/65/16 41/67/16 53/70/16 
f 53/70/16 54/71/16 42/65/16 
f 48/68/16 47/61/16 55/72/16 
f 55/72/16 56/69/16 48/68/16 
f 46/61/16 45/73/16 57/74/16 
f 57/74/16 58/72/16 46/61/16 
f 40/75/16 43/65/16 59/71/16 
f 59/71/16 60/76/16 40/75/16 
f 39/77/17 38/78/17 61/48/17 
f 61/48/17 62/79/17 39/77/17 
f 36/80/18 35/77/18 63/79/18 
f 63/79/17 64/56/17 36/80/17 
f 44/78/17 31/81/17 65/82/17 
f 65/82/18 66/48/18 44/78/18 
f 49/83/17 50/80/17 67/56/17 
f 67/56/17 68/84/17 49/83/17 
f 33/81/18 32/81/18 69/82/18 
f 69/82/18 70/82/18 33/81/18 
f 27/73/19 48/61/19 56/72/19 
f 56/72/19 51/74/19 27/73/19 
f 41/80/20 28/83/20 52/84/20 
f 52/84/20 53/56/20 41/80/20 
f 47/61/19 46/61/19 58/72/19 
f 58/72/19 55/72/19 47/61/19 
f 43/77/20 42/80/20 54/56/20 
f 54/56/20 59/79/20 43/77/20 
f 38/81/20 44/78/20 66/48/20 
f 66/48/20 61/82/20 38/81/20 
f 35/75/19 39/75/19 62/76/19 
f 62/76/19 63/76/19 35/75/19 
f 31/78/20 33/85/20 70/86/20 
f 70/86/20 65/48/20 31/78/20 
f 50/67/19 36/75/19 64/76/19 
f 64/76/19 67/70/19 50/67/19 
f 45/61/21 49/67/21 68/70/21 
f 68/70/22 57/72/22 45/61/22 
f 32/85/20 40/77/20 60/79/20 
f 60/79/23 69/86/23 32/85/23 
f 51/43/15 53/57/15 52/44/15 
f 56/64/15 55/63/15 58/62/15 
f 58/62/15 57/61/15 68/65/15 
f 56/64/15 58/62/15 68/65/15 
f 56/64/15 68/65/15 67/66/15 
f 67/66/15 64/52/15 63/51/15 
f 63/51/15 62/55/15 61/54/15 
f 67/66/15 63/51/15 61/54/15 
f 67/66/15 61/54/15 66/60/15 
f 66/60/15 65/47/15 70/49/15 
f 66/60/15 69/48/15 59/59/15 
f 67/66/15 66/60/15 59/59/15 
f 56/64/15 67/66/15 59/59/15 
f 59/59/15 54/58/15 53/57/15 
f 56/64/15 59/59/15 53/57/15 
f 51/43/15 56/64/15 53/57/15 
f 66/60/24 70/49/24 69/48/24 
f 69/48/15 60/56/15 59/59/15 
s 64
f 71/43/24 72/46/24 73/45/24 
f 73/45/24 74/44/24 71/43/24 
f 75/47/24 76/49/24 77/48/24 
f 78/50/24 79/52/24 80/51/24 
f 81/53/24 78/50/24 82/55/24 
f 82/55/24 83/54/24 81/53/24 
f 81/53/24 83/54/24 75/47/24 
f 81/53/24 77/48/24 84/56/24 
f 84/56/24 73/45/24 81/53/24 
f 74/44/24 85/58/24 86/57/24 
f 85/58/24 84/56/24 87/59/24 
f 73/45/24 85/58/24 74/44/24 
f 73/45/24 84/56/24 85/58/24 
f 75/47/24 77/48/24 81/53/24 
f 75/47/24 83/54/24 88/60/24 
f 89/61/24 90/63/24 91/62/24 
f 90/63/24 71/43/24 92/64/24 
f 72/46/24 89/61/24 93/65/24 
f 93/65/24 78/50/24 72/46/24 
f 72/46/24 90/63/24 89/61/24 
f 72/46/24 71/43/24 90/63/24 
f 79/52/24 93/65/24 94/66/24 
f 78/50/24 93/65/24 79/52/24 
f 78/50/24 80/51/24 82/55/24 
s off
f 74/67/16 95/70/16 96/69/16 
f 96/69/16 71/68/16 74/67/16 
f 85/65/16 97/71/16 98/70/16 
f 98/70/16 86/67/16 85/65/16 
f 92/68/16 99/69/16 100/72/16 
f 100/72/16 90/61/16 92/68/16 
f 91/61/16 101/72/16 102/74/16 
f 102/74/16 89/73/16 91/61/16 
f 84/75/16 103/76/16 104/71/16 
f 104/71/16 87/65/16 84/75/16 
f 82/77/17 105/79/17 106/48/17 
f 106/48/17 83/78/17 82/77/17 
f 79/80/17 107/56/17 108/79/17 
f 108/79/17 80/77/17 79/80/17 
f 88/78/17 109/48/17 110/82/17 
f 110/82/17 75/81/17 88/78/17 
f 93/83/17 111/84/17 112/56/17 
f 112/56/17 94/80/17 93/83/17 
f 76/81/17 113/82/17 114/82/17 
f 114/82/17 77/81/17 76/81/17 
f 71/73/19 96/74/19 99/72/19 
f 99/72/19 92/61/19 71/73/19 
f 86/80/20 98/56/20 95/84/20 
f 95/84/20 74/83/20 86/80/20 
f 90/61/19 100/72/19 101/72/19 
f 101/72/19 91/61/19 90/61/19 
f 87/77/20 104/79/20 97/56/20 
f 97/56/20 85/80/20 87/77/20 
f 83/81/20 106/82/20 109/48/20 
f 109/48/20 88/78/20 83/81/20 
f 80/75/19 108/76/19 105/76/19 
f 105/76/19 82/75/19 80/75/19 
f 75/78/20 110/48/20 113/86/20 
f 113/86/20 76/85/20 75/78/20 
f 94/67/19 112/70/19 107/76/19 
f 107/76/19 79/75/19 94/67/19 
f 89/61/22 102/72/22 111/70/22 
f 111/70/22 93/67/22 89/61/22 
f 77/85/20 114/86/20 103/79/20 
f 103/79/20 84/77/20 77/85/20 
f 96/43/24 95/44/24 98/57/24 
f 99/64/24 101/62/24 100/63/24 
f 101/62/24 111/65/24 102/61/24 
f 99/64/24 111/65/24 101/62/24 
f 99/64/24 112/66/24 111/65/24 
f 112/66/24 108/51/24 107/52/24 
f 108/51/24 106/54/24 105/55/24 
f 112/66/24 106/54/24 108/51/24 
f 112/66/24 109/60/24 106/54/24 
f 109/60/24 113/49/24 110/47/24 
f 109/60/24 104/59/24 114/48/24 
f 112/66/24 104/59/24 109/60/24 
f 99/64/24 104/59/24 112/66/24 
f 104/59/24 98/57/24 97/58/24 
f 99/64/24 98/57/24 104/59/24 
f 96/43/24 98/57/24 99/64/24 
f 109/60/15 114/48/15 113/49/15 
f 114/48/24 104/59/24 103/56/24 
# 164 faces

