# 3ds Max Wavefront OBJ Exporter v0.97b - (c)2007 guruware
# File Created: 15.02.2016 18:09:54

mtllib tritanium_crate.mtl

#
# object base
#

v  0.0021 0.0000 0.2127
v  0.0787 0.0000 0.1361
v  0.9213 0.0000 0.1361
v  0.9213 0.0000 0.8639
v  0.9979 0.0000 0.2127
v  0.9979 0.0000 0.7872
v  0.0787 0.0000 0.8638
v  0.0021 0.0000 0.7872
v  0.0787 0.7660 0.7872
v  0.3085 0.7660 0.7872
v  0.3085 0.7660 0.2128
v  0.0787 0.7660 0.2128
v  0.6915 0.7277 0.7107
v  0.6915 0.7277 0.2894
v  0.3085 0.7277 0.2894
v  0.3085 0.7277 0.7106
v  0.9213 0.7660 0.7872
v  0.9213 0.7660 0.2128
v  0.6915 0.7660 0.2128
v  0.6915 0.7660 0.7872
v  0.6915 0.4596 0.8639
v  0.3085 0.4596 0.8639
v  0.0787 0.6894 0.8639
v  0.6915 0.4596 0.8256
v  0.6915 0.6128 0.8255
v  0.3085 0.6128 0.8255
v  0.3085 0.4596 0.8256
v  0.9213 0.6894 0.8639
v  0.6915 0.6894 0.8639
v  0.9979 0.6894 0.2128
v  0.9979 0.6894 0.7872
v  0.6915 0.4596 0.1362
v  0.9213 0.6894 0.1362
v  0.3085 0.4596 0.1745
v  0.3085 0.6128 0.1745
v  0.6915 0.6128 0.1745
v  0.6915 0.4596 0.1745
v  0.0021 0.6894 0.7872
v  0.0021 0.6894 0.2127
v  0.3085 0.6894 0.8639
v  0.3085 0.4596 0.1362
v  0.6915 0.6894 0.1362
v  0.0787 0.6894 0.1362
v  0.3085 0.6894 0.1362
# 44 vertices

vn -0.0000 -1.0000 -0.0000
vn 0.0000 -1.0000 -0.0000
vn -0.0000 -1.0000 0.0000
vn 0.0000 1.0000 -0.0000
vn -0.0000 1.0000 -0.0000
vn -0.0000 -0.0000 1.0000
vn 0.0000 0.0000 1.0000
vn -0.0000 0.0000 1.0000
vn 1.0000 0.0000 -0.0000
vn -0.0000 0.0000 -1.0000
vn 0.0000 -0.0000 -1.0000
vn -1.0000 -0.0000 -0.0000
vn 1.0000 -0.0000 0.0000
vn 1.0000 0.0000 0.0000
vn 1.0000 -0.0000 -0.0000
vn -1.0000 0.0000 -0.0000
vn -0.0000 0.7071 0.7071
vn 0.0000 0.7071 0.7071
vn 0.0000 0.7071 -0.7071
vn -0.5774 0.5774 0.5773
vn 0.5774 0.5774 0.5773
vn -0.5774 0.5774 -0.5774
vn 0.5774 0.5774 -0.5774
vn -0.0000 0.7071 -0.7071
vn -0.7071 0.7071 -0.0000
vn 0.7071 0.7071 -0.0000
vn -0.7071 0.0000 0.7071
vn -0.7071 -0.0000 0.7071
vn 0.7071 0.0000 0.7071
vn 0.7071 -0.0000 0.7071
vn 0.7071 0.0000 -0.7071
vn -0.7071 0.0000 -0.7071
vn -0.7071 -0.0000 -0.7071
vn 0.0000 0.0000 -1.0000
# 34 vertex normals

vt 0.4688 0.6875 0.0000
vt 0.5000 0.6563 0.0000
vt 0.8438 0.6563 0.0000
vt 0.8438 0.9531 0.0000
vt 0.8750 0.6875 0.0000
vt 0.8750 0.9219 0.0000
vt 0.5000 0.9531 0.0000
vt 0.4688 0.9219 0.0000
vt 0.0313 0.1563 0.0000
vt 0.1563 0.1563 0.0000
vt 0.1563 0.4531 0.0000
vt 0.0313 0.4531 0.0000
vt 0.1563 0.4063 0.0000
vt 0.1563 0.2031 0.0000
vt 0.3125 0.2031 0.0000
vt 0.3125 0.4063 0.0000
vt 0.4375 0.1563 0.0000
vt 0.4375 0.4531 0.0000
vt 0.3125 0.4531 0.0000
vt 0.3125 0.1563 0.0000
vt 0.8438 -0.0000 0.0000
vt 0.7500 0.1875 0.0000
vt 0.5938 0.1875 0.0000
vt 0.5000 -0.0000 0.0000
vt 0.5000 0.2813 0.0000
vt 0.1563 0.5156 0.0000
vt 0.1563 0.4688 0.0000
vt 0.3125 0.4688 0.0000
vt 0.3125 0.5156 0.0000
vt 0.8438 0.2813 0.0000
vt 0.7500 0.2813 0.0000
vt 0.0781 0.5313 0.0000
vt 0.3750 0.8125 0.0000
vt 0.0781 0.8125 0.0000
vt 0.5000 0.3281 0.0000
vt 0.5938 0.5156 0.0000
vt 0.5000 0.6094 0.0000
vt 0.3125 0.0938 0.0000
vt 0.3125 0.1406 0.0000
vt 0.1563 0.1406 0.0000
vt 0.1563 0.0938 0.0000
vt 0.3750 0.5313 0.0000
vt 0.0625 0.9688 0.0000
vt 0.0625 0.8906 0.0000
vt 0.0781 0.8906 0.0000
vt 0.0781 0.9375 0.0000
vt 0.1563 0.5313 0.0000
vt 0.3125 0.5313 0.0000
vt 0.3125 0.0781 0.0000
vt 0.1563 0.0781 0.0000
vt 0.0852 1.0000 0.0000
vt 0.1250 0.9844 0.0000
vt 0.3281 0.9844 0.0000
vt 0.3683 1.0000 0.0000
vt 0.4531 0.2813 0.0000
vt 0.8906 0.2813 0.0000
vt 0.8438 0.3281 0.0000
vt 0.8438 0.6094 0.0000
vt 0.8906 0.6094 0.0000
vt 0.4531 0.6094 0.0000
vt 0.5938 0.2813 0.0000
vt 0.5938 0.3281 0.0000
vt 0.7500 0.6094 0.0000
vt 0.7500 0.6563 0.0000
vt 0.3750 0.8594 0.0000
vt 0.0781 0.8594 0.0000
vt 0.7500 0.3281 0.0000
vt 0.5938 0.6094 0.0000
vt 0.5938 0.6563 0.0000
vt 0.4531 -0.0000 0.0000
vt 0.8906 -0.0000 0.0000
vt 0.4531 0.3281 0.0000
vt 0.8906 0.3281 0.0000
vt 0.3750 0.9375 0.0000
vt 0.3906 0.9688 0.0000
vt 0.3750 0.8906 0.0000
vt 0.3906 0.8906 0.0000
vt 0.7500 0.5156 0.0000
# 78 texture coords

g base
usemtl crate
f 1/1/1 2/2/2 3/3/1 4/4/2 
f 3/3/1 5/5/3 6/6/2 4/4/2 
f 1/1/1 4/4/2 7/7/1 8/8/3 
f 9/9/4 10/10/4 11/11/4 12/12/4 
f 13/13/5 14/14/4 15/15/5 16/16/5 
f 17/17/4 18/18/4 19/19/4 20/20/4 
f 4/21/6 21/22/6 22/23/6 7/24/6 
f 7/24/6 22/23/6 23/25/6 
f 24/26/7 25/27/7 26/28/7 27/29/7 
f 21/22/6 28/30/6 29/31/8 
f 6/32/9 30/33/9 31/34/9 
f 3/35/10 32/36/10 33/37/10 
f 34/38/11 35/39/11 36/40/11 37/41/11 
f 1/32/12 8/42/12 38/33/12 39/34/12 
f 40/43/13 22/44/13 27/45/14 26/46/9 
f 21/47/5 24/26/4 27/29/5 22/48/5 
f 41/49/4 34/38/4 37/41/4 32/50/4 
f 10/51/15 16/52/13 15/53/9 11/54/9 
f 10/51/15 40/43/13 26/46/9 16/52/13 
f 36/46/16 42/43/16 32/44/16 37/45/16 
f 16/16/17 26/28/18 25/27/17 13/13/17 
f 14/14/19 36/40/19 35/39/19 15/15/19 
f 9/35/20 38/55/20 23/25/20 
f 28/30/21 31/56/21 17/57/21 
f 12/3/22 43/58/22 39/59/22 
f 30/60/23 33/37/23 18/2/23 
f 9/35/17 23/25/17 40/61/17 10/62/17 
f 44/63/19 43/58/24 12/3/24 11/64/19 
f 9/65/25 12/66/25 39/34/25 38/33/25 
f 29/31/17 28/30/17 17/57/17 20/67/17 
f 17/66/26 31/34/26 30/33/26 18/65/26 
f 18/2/19 33/37/19 42/68/24 19/69/24 
f 7/24/27 23/25/28 38/55/28 8/70/27 
f 4/21/29 6/71/29 31/56/30 28/30/30 
f 5/72/31 3/35/31 33/37/31 30/60/31 
f 39/59/32 43/58/32 2/57/33 1/73/33 
f 25/74/16 29/75/16 20/54/16 13/53/16 
f 25/74/16 24/76/16 21/77/16 29/75/16 
f 14/52/16 13/53/16 20/54/16 19/51/16 
f 36/46/16 14/52/16 19/51/16 42/43/16 
f 35/74/14 44/75/14 11/54/9 15/53/9 
f 35/74/14 34/76/9 41/77/9 44/75/14 
f 22/23/6 40/61/6 23/25/6 
f 21/22/6 4/21/6 28/30/6 
f 6/32/9 5/42/9 30/33/9 
f 43/58/10 44/63/10 41/78/10 
f 32/36/10 42/68/10 33/37/10 
f 2/57/34 43/58/10 41/78/10 
f 2/57/34 41/78/10 32/36/10 3/35/10 
# 35 polygons - 14 triangles

